{"title":"X-Men Apocalypse (2016) - CAM - x264 - Dual Audio - (Eng - Hindi","uid":14682831,"size":1072167862,"categoryP":"video","categoryS":"movies","magnet":"?xt=urn:btih:76be99657f971be718e308cea1ed202399a9b055&amp;dn=X-Men+Apocalypse+%282016%29+-+CAM+-+x264+-+Dual+Audio+-+%28Eng+-+Hindi&amp;tr=udp%3A%2F%2Ftracker.leechers-paradise.org%3A6969&amp;tr=udp%3A%2F%2Fzer0day.ch%3A1337&amp;tr=udp%3A%2F%2Fopen.demonii.com%3A1337&amp;tr=udp%3A%2F%2Ftracker.coppersurfer.tk%3A6969&amp;tr=udp%3A%2F%2Fexodus.desync.com%3A6969","seeders":4,"leechers":3,"uploader":"makintos13","files":1,"time":1464103756,"description":"X-Men Apocalypse (2016) - CAM - x264 - Dual Audio - (Eng - Hindi) - Makintos13\r\n\r\nscreenss:\r\n \nhttps://imgmak.com/TYm\r\n \nhttps://imgmak.com/TYu\r\n \nhttps://imgmak.com/TY1\r\n \nhttps://imgmak.com/TYU\r\n\r\n\r\nFormat : Matroska\r\nFormat version : Version 4 / Version 2\r\nFile size : 1 022 MiB\r\nDuration : 2h 14mn\r\nOverall bit rate : 1 064 Kbps\r\n\r\n\r\nVideo\r\n\r\nID : 3\r\nFormat : AVC\r\nFormat/Info : Advanced Video Codec\r\nFormat profile :   \r\nFormat settings, CABAC : Yes\r\nFormat settings, ReFrames : 4 frames\r\nCodec ID : V_MPEG4/ISO/AVC\r\nDuration : 2h 14mn\r\nBit rate : 932 Kbps\r\nWidth : 600 pixels\r\nHeight : 272 pixels\r\nDisplay aspect ratio : 2.2:1\r\nFrame rate mode : Constant\r\nFrame rate : 29.970 (30000/1001) fps\r\nColor space : YUV\r\nChroma subsampling : 4:2:0\r\nBit depth : 8 bits\r\nScan type : Progressive\r\nBits/(Pixel*Frame) : 0.191\r\nStream size : 896 MiB (88%)\r\n: Yes\r\nForced : No\r\n\r\nAudio #1:\r\n\r\nID : 1\r\nFormat : AAC\r\nFormat/Info : Advanced Audio Codec\r\nFormat profile : LC\r\nCodec ID : A_AAC\r\nDuration : 2h 14mn\r\nBit rate : 64.2 Kbps\r\nChannel(s) : 2 channels\r\nChannel positions : Front: L R\r\nSampling rate : 48.0 KHz\r\nFrame rate : 46.875 fps (1024 spf)\r\nCompression mode : Lossy\r\nDelay relative to video : 46ms\r\nStream size : 61.7 MiB (6%)\r\nTitle : Stereo\r\nLanguage : English\r\nDefault : Yes\r\nForced : No\r\n\r\nAudio #2\r\n\r\nID : 2\r\nFormat : AAC\r\nFormat/Info : Advanced Audio Codec\r\nFormat profile : LC\r\nCodec ID : A_AAC\r\nDuration : 2h 14mn\r\nBit rate : 64.2 Kbps\r\nChannel(s) : 2 channels\r\nChannel positions : Front: L R\r\nSampling rate : 48.0 KHz\r\nFrame rate : 46.875 fps (1024 spf)\r\nCompression mode : Lossy\r\nDelay relative to video : 46ms\r\nStream size : 61.7 MiB (6%)\r\nTitle : Stereo\r\nLanguage : Hindi\r\nDefault : No\r\nForced : No\r\nSource : DHub (thanks)","torrent":{"xt":"urn:btih:76be99657f971be718e308cea1ed202399a9b055","amp;dn":"X-Men+Apocalypse+%282016%29+-+CAM+-+x264+-+Dual+Audio+-+%28Eng+-+Hindi","amp;tr":["udp%3A%2F%2Ftracker.leechers-paradise.org%3A6969","udp%3A%2F%2Fzer0day.ch%3A1337","udp%3A%2F%2Fopen.demonii.com%3A1337","udp%3A%2F%2Ftracker.coppersurfer.tk%3A6969","udp%3A%2F%2Fexodus.desync.com%3A6969"],"infoHash":"76be99657f971be718e308cea1ed202399a9b055","infoHashBuffer":{"type":"Buffer","data":[118,190,153,101,127,151,27,231,24,227,8,206,161,237,32,35,153,169,176,85]},"announce":[],"urlList":[]}}